<?xml version="1.0" encoding="utf-8"?>
<!-- Generator: Adobe Illustrator 25.3.1, SVG Export Plug-In . SVG Version: 6.00 Build 0)  -->
<svg version="1.1" xmlns="http://www.w3.org/2000/svg" xmlns:xlink="http://www.w3.org/1999/xlink" x="0px" y="0px"
	 viewBox="0 0 1440 900" style="enable-background:new 0 0 1440 900;" xml:space="preserve">
<style type="text/css">
	.st0{display:none;}
	.st1{display:inline;}
	.st2{fill:#FFFFFF;}
	.st3{fill:#FFEDDF;stroke:#231F20;stroke-width:0.4904;stroke-linejoin:round;stroke-miterlimit:10;}
	.st4{clip-path:url(#XMLID_12_);fill:#828282;stroke:#231F20;stroke-width:0.1962;stroke-linejoin:round;stroke-miterlimit:10;}
	.st5{clip-path:url(#XMLID_13_);fill:#828282;stroke:#231F20;stroke-width:0.1962;stroke-linejoin:round;stroke-miterlimit:10;}
	.st6{fill:#020202;stroke:#231F20;stroke-width:0.4904;stroke-linejoin:round;stroke-miterlimit:10;}
	.st7{fill:#303030;stroke:#000000;stroke-width:0.4904;stroke-miterlimit:10;}
	.st8{fill:#494949;stroke:#000000;stroke-width:0.4904;stroke-miterlimit:10;}
	.st9{fill:#7C3F16;stroke:#000000;stroke-width:0.4904;stroke-miterlimit:10;}
	.st10{fill:#AAAAAA;stroke:#000000;stroke-width:0.4904;stroke-miterlimit:10;}
	.st11{fill:#C6BDB6;stroke:#000000;stroke-width:0.4904;stroke-miterlimit:10;}
	.st12{fill:#FFEDDF;stroke:#000000;stroke-width:0.2943;stroke-miterlimit:10;}
	.st13{fill:#7F7F7F;stroke:#000000;stroke-width:0.2943;stroke-miterlimit:10;}
	.st14{fill:#FFEDDF;stroke:#231F20;stroke-width:0.4904;stroke-linecap:round;stroke-linejoin:round;stroke-miterlimit:10;}
	.st15{fill:#969696;stroke:#000000;stroke-width:0.2943;stroke-miterlimit:10;}
	.st16{fill:#96393E;}
	.st17{fill:#9E6227;}
	.st18{fill:none;stroke:#231F20;stroke-width:0.4904;stroke-linecap:round;stroke-linejoin:round;stroke-miterlimit:10;}
	.st19{fill:#9E6227;stroke:#231F20;stroke-width:0.4904;stroke-linejoin:round;stroke-miterlimit:10;}
	.st20{clip-path:url(#XMLID_14_);fill:#FFD8F1;}
	.st21{fill:none;stroke:#000000;stroke-width:0.4904;stroke-linecap:round;stroke-miterlimit:10;}
	.st22{clip-path:url(#XMLID_15_);fill:#231F20;}
	.st23{clip-path:url(#XMLID_16_);fill:#231F20;}
	.st24{fill:#88BB3D;stroke:#231F20;stroke-width:0.4904;stroke-linejoin:round;stroke-miterlimit:10;}
	.st25{fill:#75B03D;stroke:#231F20;stroke-width:0.4904;stroke-linejoin:round;stroke-miterlimit:10;}
	.st26{fill:#77C94F;stroke:#231F20;stroke-width:0.4904;stroke-linejoin:round;stroke-miterlimit:10;}
	.st27{fill:#75782F;stroke:#231F20;stroke-width:0.4904;stroke-linejoin:round;stroke-miterlimit:10;}
	.st28{fill:#8DCCF4;}
	.st29{fill:none;stroke:#231F20;stroke-width:0.4904;stroke-linecap:round;stroke-miterlimit:10;}
	.st30{fill:#FDFFDC;stroke:#000000;stroke-width:0.2943;stroke-miterlimit:10;}
	.st31{fill:#FFEDDF;stroke:#000000;stroke-width:0.2943;stroke-linecap:round;stroke-miterlimit:10;}
	.st32{fill:none;}
	.st33{fill:#ED1E79;stroke:#000000;stroke-width:0.75;stroke-miterlimit:10;}
	.st34{font-family:'HancomMalangMalang-Regular';}
	.st35{font-size:21px;}
	.st36{fill:#93278F;}
	.st37{font-family:'VinetaBT-Regular';}
	.st38{font-size:14px;}
	.st39{fill:#FFEDDF;stroke:#231F20;stroke-width:1.0614;stroke-linejoin:round;stroke-miterlimit:10;}
	.st40{clip-path:url(#XMLID_17_);fill:#828282;stroke:#231F20;stroke-width:0.4246;stroke-linejoin:round;stroke-miterlimit:10;}
	.st41{clip-path:url(#XMLID_18_);fill:#828282;stroke:#231F20;stroke-width:0.4246;stroke-linejoin:round;stroke-miterlimit:10;}
	.st42{fill:#020202;stroke:#231F20;stroke-width:1.0614;stroke-linejoin:round;stroke-miterlimit:10;}
	.st43{fill:#303030;stroke:#000000;stroke-width:1.0614;stroke-miterlimit:10;}
	.st44{fill:#494949;stroke:#000000;stroke-width:1.0614;stroke-miterlimit:10;}
	.st45{fill:#7C3F16;stroke:#000000;stroke-width:1.0614;stroke-miterlimit:10;}
	.st46{fill:#AAAAAA;stroke:#000000;stroke-width:1.0614;stroke-miterlimit:10;}
	.st47{fill:#C6BDB6;stroke:#000000;stroke-width:1.0614;stroke-miterlimit:10;}
	.st48{fill:#FFEDDF;stroke:#000000;stroke-width:0.6368;stroke-miterlimit:10;}
	.st49{fill:#7F7F7F;stroke:#000000;stroke-width:0.6368;stroke-miterlimit:10;}
	.st50{fill:#FFEDDF;stroke:#231F20;stroke-width:1.0614;stroke-linecap:round;stroke-linejoin:round;stroke-miterlimit:10;}
	.st51{fill:#969696;stroke:#000000;stroke-width:0.6368;stroke-miterlimit:10;}
	.st52{fill:none;stroke:#231F20;stroke-width:1.0614;stroke-linecap:round;stroke-linejoin:round;stroke-miterlimit:10;}
	.st53{fill:#9E6227;stroke:#231F20;stroke-width:1.0614;stroke-linejoin:round;stroke-miterlimit:10;}
	.st54{clip-path:url(#XMLID_19_);fill:#FFD8F1;}
	.st55{fill:none;stroke:#000000;stroke-width:1.0614;stroke-linecap:round;stroke-miterlimit:10;}
	.st56{clip-path:url(#XMLID_20_);fill:#231F20;}
	.st57{clip-path:url(#XMLID_21_);fill:#231F20;}
	.st58{fill:#88BB3D;stroke:#231F20;stroke-width:1.0614;stroke-linejoin:round;stroke-miterlimit:10;}
	.st59{fill:#75B03D;stroke:#231F20;stroke-width:1.0614;stroke-linejoin:round;stroke-miterlimit:10;}
	.st60{fill:#77C94F;stroke:#231F20;stroke-width:1.0614;stroke-linejoin:round;stroke-miterlimit:10;}
	.st61{fill:#75782F;stroke:#231F20;stroke-width:1.0614;stroke-linejoin:round;stroke-miterlimit:10;}
	.st62{fill:none;stroke:#231F20;stroke-width:1.0614;stroke-linecap:round;stroke-miterlimit:10;}
	.st63{fill:#FDFFDC;stroke:#000000;stroke-width:0.6368;stroke-miterlimit:10;}
	.st64{fill:#FFEDDF;stroke:#000000;stroke-width:0.6368;stroke-linecap:round;stroke-miterlimit:10;}
	.st65{fill:#ED1E79;stroke:#000000;stroke-width:1.6231;stroke-miterlimit:10;}
	.st66{font-size:45.4472px;}
	.st67{font-size:30.2981px;}
</style>
<g id="Layer_1" class="st0">
	<g class="st1">
		<defs>
			<rect id="SVGID_1_" y="0" width="1440" height="653.59"/>
		</defs>
		<clipPath id="SVGID_2_">
			<use xlink:href="#SVGID_1_"  style="overflow:visible;"/>
		</clipPath>
		<g style="clip-path:url(#SVGID_2_);">
			
				<image style="overflow:visible;" width="1919" height="871" xlink:href="FBAB2CE6.jpg"  transform="matrix(0.7504 0 0 0.7504 0 0)">
			</image>
		</g>
	</g>
	<g class="st1">
		<rect x="265" y="7" class="st2" width="159" height="48"/>
	</g>
</g>
<g id="로고">
	<g>
		<g>
			<g>
				<path class="st3" d="M259.25,78.43h-3.73l-0.18,4.71c1.36,0,2.73,0,4.09,0L259.25,78.43z"/>
				<g>
					<defs>
						<path id="XMLID_5_" d="M255.34,83.13l-0.21,5.49h4.51l-0.21-5.49C258.07,83.13,256.7,83.13,255.34,83.13z"/>
					</defs>
					<use xlink:href="#XMLID_5_"  style="overflow:visible;fill:#020202;"/>
					<clipPath id="XMLID_12_">
						<use xlink:href="#XMLID_5_"  style="overflow:visible;"/>
					</clipPath>
					<rect x="255.37" y="83.28" class="st4" width="0.59" height="2.16"/>
					<rect x="256.06" y="83.28" class="st4" width="0.59" height="2.16"/>
					<rect x="256.75" y="83.28" class="st4" width="0.59" height="2.16"/>
					<rect x="257.43" y="83.28" class="st4" width="0.59" height="2.16"/>
					<rect x="258.12" y="83.28" class="st4" width="0.59" height="2.16"/>
					<rect x="258.81" y="83.28" class="st4" width="0.59" height="2.16"/>
					<rect x="259.49" y="83.28" class="st4" width="0.59" height="2.16"/>
					
						<use xlink:href="#XMLID_5_"  style="overflow:visible;fill:none;stroke:#231F20;stroke-width:0.4904;stroke-linejoin:round;stroke-miterlimit:10;"/>
				</g>
			</g>
			<g>
				<path class="st3" d="M253.07,78.43h-3.73l-0.18,4.71c1.36,0,2.73,0,4.09,0L253.07,78.43z"/>
				<g>
					<defs>
						<path id="XMLID_6_" d="M249.16,83.13l-0.21,5.49h4.51l-0.21-5.49C251.89,83.13,250.52,83.13,249.16,83.13z"/>
					</defs>
					<use xlink:href="#XMLID_6_"  style="overflow:visible;fill:#020202;"/>
					<clipPath id="XMLID_13_">
						<use xlink:href="#XMLID_6_"  style="overflow:visible;"/>
					</clipPath>
					<rect x="249.19" y="83.28" class="st5" width="0.59" height="2.16"/>
					<rect x="249.88" y="83.28" class="st5" width="0.59" height="2.16"/>
					<rect x="250.57" y="83.28" class="st5" width="0.59" height="2.16"/>
					<rect x="251.25" y="83.28" class="st5" width="0.59" height="2.16"/>
					<rect x="251.94" y="83.28" class="st5" width="0.59" height="2.16"/>
					<rect x="252.63" y="83.28" class="st5" width="0.59" height="2.16"/>
					<rect x="253.31" y="83.28" class="st5" width="0.59" height="2.16"/>
					
						<use xlink:href="#XMLID_6_"  style="overflow:visible;fill:none;stroke:#231F20;stroke-width:0.4904;stroke-linejoin:round;stroke-miterlimit:10;"/>
				</g>
			</g>
			<path class="st6" d="M248.46,90c0-1.54,1.25-2.8,2.8-2.8c1.54,0,2.8,1.25,2.8,2.8H248.46z"/>
			<g>
				<g>
					<rect x="248.12" y="65.92" class="st7" width="11.77" height="13.63"/>
					<path class="st8" d="M259.38,79.8h-1.95c-0.03,0-0.05-0.02-0.05-0.05v-6.94c0-0.04,0.06-0.05,0.08-0.01l1.97,6.93
						C259.44,79.77,259.41,79.8,259.38,79.8z"/>
					<path class="st8" d="M248.81,79.8h1.95c0.03,0,0.05-0.02,0.05-0.05v-6.94c0-0.04-0.06-0.05-0.08-0.01l-1.97,6.93
						C248.76,79.77,248.78,79.8,248.81,79.8z"/>
					<path class="st8" d="M255.25,79.9h-2.57c-0.14,0-0.25-0.15-0.22-0.31l1.41-6.81c0.05-0.26,0.39-0.26,0.43,0.01l1.16,6.81
						C255.49,79.75,255.39,79.9,255.25,79.9z"/>
				</g>
				<rect x="248.14" y="65.67" class="st9" width="11.77" height="1.86"/>
				<rect x="253.09" y="65.67" class="st10" width="1.86" height="1.86"/>
				<path class="st11" d="M253.22,65.77c0.46,0,0.83,0.37,0.83,0.83c0,0.46-0.37,0.83-0.83,0.83"/>
			</g>
			<g>
				<path class="st12" d="M244.66,64.19l-0.23,0.88c-0.3,1.16,0.4,2.34,1.57,2.64c1.17,0.3,2.35-0.39,2.65-1.55l0.23-0.88
					C247.47,64.92,246.07,64.55,244.66,64.19z"/>
				<path class="st13" d="M251.02,57.04c0.3-1.16-0.4-2.34-1.57-2.64c-1.17-0.3-2.35,0.39-2.65,1.55l-2.14,8.24
					c1.41,0.36,2.81,0.73,4.22,1.09L251.02,57.04z"/>
			</g>
			<g>
				<path class="st12" d="M263.36,64.19l0.23,0.88c0.3,1.16-0.4,2.34-1.57,2.64c-1.17,0.3-2.35-0.39-2.65-1.55l-0.23-0.88
					C260.54,64.92,261.95,64.55,263.36,64.19z"/>
				<path class="st13" d="M257,57.04c-0.3-1.16,0.4-2.34,1.57-2.64c1.17-0.3,2.35,0.39,2.65,1.55l2.14,8.24
					c-1.41,0.36-2.81,0.73-4.22,1.09L257,57.04z"/>
			</g>
			<rect x="251.99" y="51.35" class="st14" width="4.12" height="3.73"/>
			<circle class="st12" cx="263.24" cy="67.5" r="1.72"/>
			<path class="st15" d="M250.22,65.87h7.65c0.33,0,0.59,0.26,0.59,0.59v0.98c0,0.33,0.26,0.59,0.59,0.59h2.7
				c0.38,0,0.67-0.36,0.57-0.73l-3.27-12.75c-0.07-0.26-0.3-0.44-0.57-0.44h-1.63c-0.33,0-0.59,0.26-0.59,0.59l0,0
				c0,0.33-0.26,0.59-0.59,0.59h-3.24c-0.33,0-0.59-0.26-0.59-0.59l0,0c0-0.33-0.26-0.59-0.59-0.59h-1.63
				c-0.27,0-0.5,0.18-0.57,0.44l-3.27,12.75c-0.1,0.37,0.19,0.73,0.57,0.73h2.7c0.33,0,0.59-0.26,0.59-0.59v-0.98
				C249.64,66.13,249.9,65.87,250.22,65.87z"/>
			<g>
				<circle class="st16" cx="255.82" cy="54.91" r="0.51"/>
				<circle class="st16" cx="252.28" cy="54.91" r="0.51"/>
				<circle class="st16" cx="252.87" cy="55.5" r="0.51"/>
				<circle class="st16" cx="253.58" cy="55.89" r="0.51"/>
				<circle class="st16" cx="255.23" cy="55.5" r="0.51"/>
				<circle class="st16" cx="254.52" cy="55.89" r="0.51"/>
			</g>
			<g>
				<g>
					<path class="st17" d="M263.27,46.94c0,2.97-2.43,5.39-5.39,5.39h-8.34c-2.97,0-5.39-2.43-5.39-5.39v-0.2
						c0-2.97,2.43-5.39,5.39-5.39h8.34c2.97,0,5.39,2.43,5.39,5.39V46.94z"/>
					<path class="st18" d="M263.27,46.94c0,2.97-2.43,5.39-5.39,5.39h-8.34c-2.97,0-5.39-2.43-5.39-5.39v-0.2
						c0-2.97,2.43-5.39,5.39-5.39h8.34c2.97,0,5.39,2.43,5.39,5.39V46.94z"/>
				</g>
				<path class="st19" d="M261.21,63.5c-0.2-0.88-1.1-1.42-2.01-1.21c-0.91,0.21-1.48,1.09-1.27,1.97c0.2,0.88,1.43,2.84,2.34,2.63
					C261.18,66.68,261.41,64.38,261.21,63.5z"/>
				<g>
					<g>
						<g>
							<path class="st17" d="M259.19,56.76c-0.02-0.32-0.23-0.76-0.47-0.98l-1.6-1.44c-0.24-0.22-0.42-0.13-0.41,0.19l0.05,0.98
								c0.02,0.32,0.23,0.76,0.47,0.98l1.6,1.44c0.24,0.22,0.42,0.13,0.41-0.19L259.19,56.76z"/>
							<path class="st18" d="M259.19,56.76c-0.02-0.32-0.23-0.76-0.47-0.98l-1.6-1.44c-0.24-0.22-0.42-0.13-0.41,0.19l0.05,0.98
								c0.02,0.32,0.23,0.76,0.47,0.98l1.6,1.44c0.24,0.22,0.42,0.13,0.41-0.19L259.19,56.76z"/>
						</g>
						<g>
							<path class="st17" d="M258.96,52.45c-0.02-0.32-0.23-0.76-0.47-0.98l-1.6-1.44c-0.24-0.22-0.42-0.13-0.41,0.19l0.05,0.98
								c0.02,0.32,0.23,0.76,0.47,0.98l1.6,1.44c0.24,0.22,0.42,0.13,0.41-0.19L258.96,52.45z"/>
							<path class="st18" d="M258.96,52.45c-0.02-0.32-0.23-0.76-0.47-0.98l-1.6-1.44c-0.24-0.22-0.42-0.13-0.41,0.19l0.05,0.98
								c0.02,0.32,0.23,0.76,0.47,0.98l1.6,1.44c0.24,0.22,0.42,0.13,0.41-0.19L258.96,52.45z"/>
						</g>
						<g>
							<path class="st17" d="M258.75,48.43c-0.02-0.32-0.3-0.57-0.62-0.56l-0.69,0.04c-0.32,0.02-0.39,0.21-0.15,0.42l1.08,0.98
								c0.24,0.22,0.42,0.13,0.41-0.19L258.75,48.43z"/>
							<path class="st18" d="M258.75,48.43c-0.02-0.32-0.3-0.57-0.62-0.56l-0.69,0.04c-0.32,0.02-0.39,0.21-0.15,0.42l1.08,0.98
								c0.24,0.22,0.42,0.13,0.41-0.19L258.75,48.43z"/>
						</g>
						<g>
							<path class="st17" d="M258.85,50.29c-0.02-0.32-0.23-0.76-0.47-0.98l-1.08-0.98c-0.24-0.22-0.55-0.39-0.68-0.38
								c-0.13,0.01-0.23,0.28-0.21,0.6l0.03,0.49c0.02,0.32,0.23,0.76,0.47,0.98l1.6,1.44c0.24,0.22,0.42,0.13,0.41-0.19
								L258.85,50.29z"/>
							<path class="st18" d="M258.85,50.29c-0.02-0.32-0.23-0.76-0.47-0.98l-1.08-0.98c-0.24-0.22-0.55-0.39-0.68-0.38
								c-0.13,0.01-0.23,0.28-0.21,0.6l0.03,0.49c0.02,0.32,0.23,0.76,0.47,0.98l1.6,1.44c0.24,0.22,0.42,0.13,0.41-0.19
								L258.85,50.29z"/>
						</g>
						<g>
							<path class="st17" d="M259.07,54.6c-0.02-0.32-0.23-0.76-0.47-0.98l-1.6-1.44c-0.24-0.22-0.42-0.13-0.41,0.19l0.05,0.98
								c0.02,0.32,0.23,0.76,0.47,0.98l1.6,1.44c0.24,0.22,0.42,0.13,0.41-0.19L259.07,54.6z"/>
							<path class="st18" d="M259.07,54.6c-0.02-0.32-0.23-0.76-0.47-0.98l-1.6-1.44c-0.24-0.22-0.42-0.13-0.41,0.19l0.05,0.98
								c0.02,0.32,0.23,0.76,0.47,0.98l1.6,1.44c0.24,0.22,0.42,0.13,0.41-0.19L259.07,54.6z"/>
						</g>
						<g>
							<path class="st17" d="M259.23,64.12c0.19-0.01,0.33-0.28,0.31-0.61l-0.02-0.29c-0.02-0.32-0.23-0.76-0.47-0.98l-1.6-1.44
								c-0.24-0.22-0.42-0.13-0.41,0.19l0.05,0.98c0.02,0.32,0.23,0.76,0.47,0.98l0.88,0.79C258.69,63.97,259.04,64.13,259.23,64.12
								z"/>
							<path class="st18" d="M259.23,64.12c0.19-0.01,0.33-0.28,0.31-0.61l-0.02-0.29c-0.02-0.32-0.23-0.76-0.47-0.98l-1.6-1.44
								c-0.24-0.22-0.42-0.13-0.41,0.19l0.05,0.98c0.02,0.32,0.23,0.76,0.47,0.98l0.88,0.79C258.69,63.97,259.04,64.13,259.23,64.12
								z"/>
						</g>
						<g>
							<path class="st17" d="M259.3,58.91c-0.02-0.32-0.23-0.76-0.47-0.98l-1.6-1.44c-0.24-0.22-0.42-0.13-0.41,0.19l0.05,0.98
								c0.02,0.32,0.23,0.76,0.47,0.98l1.6,1.44c0.24,0.22,0.42,0.13,0.41-0.19L259.3,58.91z"/>
							<path class="st18" d="M259.3,58.91c-0.02-0.32-0.23-0.76-0.47-0.98l-1.6-1.44c-0.24-0.22-0.42-0.13-0.41,0.19l0.05,0.98
								c0.02,0.32,0.23,0.76,0.47,0.98l1.6,1.44c0.24,0.22,0.42,0.13,0.41-0.19L259.3,58.91z"/>
						</g>
						<g>
							<path class="st17" d="M259.42,61.07c-0.02-0.32-0.23-0.76-0.47-0.98l-1.6-1.44c-0.24-0.22-0.42-0.13-0.41,0.19l0.05,0.98
								c0.02,0.32,0.23,0.76,0.47,0.98l1.6,1.44c0.24,0.22,0.42,0.13,0.41-0.19L259.42,61.07z"/>
							<path class="st18" d="M259.42,61.07c-0.02-0.32-0.23-0.76-0.47-0.98l-1.6-1.44c-0.24-0.22-0.42-0.13-0.41,0.19l0.05,0.98
								c0.02,0.32,0.23,0.76,0.47,0.98l1.6,1.44c0.24,0.22,0.42,0.13,0.41-0.19L259.42,61.07z"/>
						</g>
					</g>
				</g>
				<g>
					<g>
						<g>
							<path class="st17" d="M258.57,52.57c-0.02-0.32,0.15-0.78,0.36-1.03l1.44-1.6c0.22-0.24,0.41-0.17,0.42,0.15l0.05,0.98
								c0.02,0.32-0.15,0.78-0.36,1.03l-1.44,1.6c-0.22,0.24-0.41,0.17-0.42-0.15L258.57,52.57z"/>
							<path class="st18" d="M258.57,52.57c-0.02-0.32,0.15-0.78,0.36-1.03l1.44-1.6c0.22-0.24,0.41-0.17,0.42,0.15l0.05,0.98
								c0.02,0.32-0.15,0.78-0.36,1.03l-1.44,1.6c-0.22,0.24-0.41,0.17-0.42-0.15L258.57,52.57z"/>
						</g>
						<g>
							<path class="st17" d="M258.36,48.55c-0.02-0.32,0.23-0.6,0.56-0.62l0.69-0.04c0.32-0.02,0.41,0.17,0.19,0.41l-0.98,1.08
								c-0.22,0.24-0.41,0.17-0.42-0.15L258.36,48.55z"/>
							<path class="st18" d="M258.36,48.55c-0.02-0.32,0.23-0.6,0.56-0.62l0.69-0.04c0.32-0.02,0.41,0.17,0.19,0.41l-0.98,1.08
								c-0.22,0.24-0.41,0.17-0.42-0.15L258.36,48.55z"/>
						</g>
						<g>
							<path class="st17" d="M258.8,56.88c-0.02-0.32,0.15-0.78,0.36-1.03l1.44-1.6c0.22-0.24,0.41-0.17,0.42,0.15l0.05,0.98
								c0.02,0.32-0.15,0.78-0.36,1.03l-1.44,1.6c-0.22,0.24-0.41,0.17-0.42-0.15L258.8,56.88z"/>
							<path class="st18" d="M258.8,56.88c-0.02-0.32,0.15-0.78,0.36-1.03l1.44-1.6c0.22-0.24,0.41-0.17,0.42,0.15l0.05,0.98
								c0.02,0.32-0.15,0.78-0.36,1.03l-1.44,1.6c-0.22,0.24-0.41,0.17-0.42-0.15L258.8,56.88z"/>
						</g>
						<g>
							<path class="st17" d="M258.46,50.41c-0.02-0.32,0.15-0.78,0.36-1.03l0.98-1.08c0.22-0.24,0.5-0.44,0.64-0.45
								c0.13-0.01,0.26,0.25,0.28,0.57l0.03,0.49c0.02,0.32-0.15,0.78-0.36,1.03l-1.44,1.6c-0.22,0.24-0.41,0.17-0.42-0.15
								L258.46,50.41z"/>
							<path class="st18" d="M258.46,50.41c-0.02-0.32,0.15-0.78,0.36-1.03l0.98-1.08c0.22-0.24,0.5-0.44,0.64-0.45
								c0.13-0.01,0.26,0.25,0.28,0.57l0.03,0.49c0.02,0.32-0.15,0.78-0.36,1.03l-1.44,1.6c-0.22,0.24-0.41,0.17-0.42-0.15
								L258.46,50.41z"/>
						</g>
						<g>
							<path class="st17" d="M258.69,54.72c-0.02-0.32,0.15-0.78,0.36-1.03l1.44-1.6c0.22-0.24,0.41-0.17,0.42,0.15l0.05,0.98
								c0.02,0.32-0.15,0.78-0.36,1.03l-1.44,1.6c-0.22,0.24-0.41,0.17-0.42-0.15L258.69,54.72z"/>
							<path class="st18" d="M258.69,54.72c-0.02-0.32,0.15-0.78,0.36-1.03l1.44-1.6c0.22-0.24,0.41-0.17,0.42,0.15l0.05,0.98
								c0.02,0.32-0.15,0.78-0.36,1.03l-1.44,1.6c-0.22,0.24-0.41,0.17-0.42-0.15L258.69,54.72z"/>
						</g>
						<g>
							<path class="st17" d="M259.53,64.21c-0.19,0.01-0.36-0.25-0.37-0.57l-0.02-0.29c-0.02-0.32,0.15-0.78,0.36-1.03l1.44-1.6
								c0.22-0.24,0.41-0.17,0.42,0.15l0.05,0.98c0.02,0.32-0.15,0.78-0.36,1.03l-0.79,0.88C260.05,63.99,259.72,64.2,259.53,64.21z
								"/>
							<path class="st18" d="M259.53,64.21c-0.19,0.01-0.36-0.25-0.37-0.57l-0.02-0.29c-0.02-0.32,0.15-0.78,0.36-1.03l1.44-1.6
								c0.22-0.24,0.41-0.17,0.42,0.15l0.05,0.98c0.02,0.32-0.15,0.78-0.36,1.03l-0.79,0.88C260.05,63.99,259.72,64.2,259.53,64.21z
								"/>
						</g>
						<g>
							<path class="st17" d="M258.91,59.03c-0.02-0.32,0.15-0.78,0.36-1.03l1.44-1.6c0.22-0.24,0.41-0.17,0.42,0.15l0.05,0.98
								c0.02,0.32-0.15,0.78-0.36,1.03l-1.44,1.6c-0.22,0.24-0.41,0.17-0.42-0.15L258.91,59.03z"/>
							<path class="st18" d="M258.91,59.03c-0.02-0.32,0.15-0.78,0.36-1.03l1.44-1.6c0.22-0.24,0.41-0.17,0.42,0.15l0.05,0.98
								c0.02,0.32-0.15,0.78-0.36,1.03l-1.44,1.6c-0.22,0.24-0.41,0.17-0.42-0.15L258.91,59.03z"/>
						</g>
						<g>
							<path class="st17" d="M259.03,61.19c-0.02-0.32,0.15-0.78,0.36-1.03l1.44-1.6c0.22-0.24,0.41-0.17,0.42,0.15l0.05,0.98
								c0.02,0.32-0.15,0.78-0.36,1.03l-1.44,1.6c-0.22,0.24-0.41,0.17-0.42-0.15L259.03,61.19z"/>
							<path class="st18" d="M259.03,61.19c-0.02-0.32,0.15-0.78,0.36-1.03l1.44-1.6c0.22-0.24,0.41-0.17,0.42,0.15l0.05,0.98
								c0.02,0.32-0.15,0.78-0.36,1.03l-1.44,1.6c-0.22,0.24-0.41,0.17-0.42-0.15L259.03,61.19z"/>
						</g>
					</g>
				</g>
				<path class="st14" d="M245.59,45.15c-0.81,0.23-1.28,1.07-1.05,1.87c0.23,0.81,1.07,1.28,1.87,1.05"/>
				<path class="st14" d="M262.12,45.15c0.81,0.23,1.28,1.07,1.05,1.87s-1.07,1.28-1.87,1.05"/>
				<g>
					<defs>
						<path id="XMLID_2_" d="M262.25,44.29c0,4.55-3.69,8.24-8.24,8.24c-4.55,0-8.24-3.69-8.24-8.24H262.25z"/>
					</defs>
					<use xlink:href="#XMLID_2_"  style="overflow:visible;fill:#FFEDDF;"/>
					<clipPath id="XMLID_14_">
						<use xlink:href="#XMLID_2_"  style="overflow:visible;"/>
					</clipPath>
					<circle class="st20" cx="248.8" cy="50.23" r="2.06"/>
					<circle class="st20" cx="259.21" cy="50.23" r="2.06"/>
					
						<use xlink:href="#XMLID_2_"  style="overflow:visible;fill:none;stroke:#231F20;stroke-width:0.4904;stroke-linecap:round;stroke-linejoin:round;stroke-miterlimit:10;"/>
				</g>
				<g>
					<g>
						<g>
							<path class="st17" d="M250.22,45.24c-0.32,0-0.78-0.19-1-0.42l-1.52-1.52c-0.23-0.23-0.15-0.42,0.17-0.42h0.98
								c0.32,0,0.78,0.19,1,0.42l1.52,1.52c0.23,0.23,0.15,0.42-0.17,0.42H250.22z"/>
							<path class="st18" d="M250.22,45.24c-0.32,0-0.78-0.19-1-0.42l-1.52-1.52c-0.23-0.23-0.15-0.42,0.17-0.42h0.98
								c0.32,0,0.78,0.19,1,0.42l1.52,1.52c0.23,0.23,0.15,0.42-0.17,0.42H250.22z"/>
						</g>
						<g>
							<path class="st17" d="M246.2,45.24c-0.32,0-0.59-0.26-0.59-0.59l0-0.69c0-0.32,0.19-0.4,0.42-0.17l1.03,1.03
								c0.23,0.23,0.15,0.42-0.17,0.42H246.2z"/>
							<path class="st18" d="M246.2,45.24c-0.32,0-0.59-0.26-0.59-0.59l0-0.69c0-0.32,0.19-0.4,0.42-0.17l1.03,1.03
								c0.23,0.23,0.15,0.42-0.17,0.42H246.2z"/>
						</g>
						<g>
							<path class="st17" d="M254.54,45.24c-0.32,0-0.78-0.19-1-0.42l-1.52-1.52c-0.23-0.23-0.15-0.42,0.17-0.42l0.98,0
								c0.32,0,0.78,0.19,1,0.42l1.52,1.52c0.23,0.23,0.15,0.42-0.17,0.42L254.54,45.24z"/>
							<path class="st18" d="M254.54,45.24c-0.32,0-0.78-0.19-1-0.42l-1.52-1.52c-0.23-0.23-0.15-0.42,0.17-0.42l0.98,0
								c0.32,0,0.78,0.19,1,0.42l1.52,1.52c0.23,0.23,0.15,0.42-0.17,0.42L254.54,45.24z"/>
						</g>
						<g>
							<path class="st17" d="M248.07,45.24c-0.32,0-0.78-0.19-1-0.42l-1.03-1.03c-0.23-0.23-0.42-0.53-0.42-0.66
								c0-0.13,0.26-0.25,0.59-0.25h0.49c0.32,0,0.78,0.19,1,0.42l1.52,1.52c0.23,0.23,0.15,0.42-0.17,0.42H248.07z"/>
							<path class="st18" d="M248.07,45.24c-0.32,0-0.78-0.19-1-0.42l-1.03-1.03c-0.23-0.23-0.42-0.53-0.42-0.66
								c0-0.13,0.26-0.25,0.59-0.25h0.49c0.32,0,0.78,0.19,1,0.42l1.52,1.52c0.23,0.23,0.15,0.42-0.17,0.42H248.07z"/>
						</g>
						<g>
							<path class="st17" d="M252.38,45.24c-0.32,0-0.78-0.19-1-0.42l-1.52-1.52c-0.23-0.23-0.15-0.42,0.17-0.42h0.98
								c0.32,0,0.78,0.19,1,0.42l1.52,1.52c0.23,0.23,0.15,0.42-0.17,0.42L252.38,45.24z"/>
							<path class="st18" d="M252.38,45.24c-0.32,0-0.78-0.19-1-0.42l-1.52-1.52c-0.23-0.23-0.15-0.42,0.17-0.42h0.98
								c0.32,0,0.78,0.19,1,0.42l1.52,1.52c0.23,0.23,0.15,0.42-0.17,0.42L252.38,45.24z"/>
						</g>
						<g>
							<path class="st17" d="M261.9,44.9c0,0.19-0.26,0.34-0.59,0.34h-0.29c-0.32,0-0.78-0.19-1-0.42l-1.52-1.52
								c-0.23-0.23-0.15-0.42,0.17-0.42h0.98c0.32,0,0.78,0.19,1,0.42l0.84,0.84C261.71,44.37,261.9,44.71,261.9,44.9z"/>
							<path class="st18" d="M261.9,44.9c0,0.19-0.26,0.34-0.59,0.34h-0.29c-0.32,0-0.78-0.19-1-0.42l-1.52-1.52
								c-0.23-0.23-0.15-0.42,0.17-0.42h0.98c0.32,0,0.78,0.19,1,0.42l0.84,0.84C261.71,44.37,261.9,44.71,261.9,44.9z"/>
						</g>
						<g>
							<path class="st17" d="M256.7,45.24c-0.32,0-0.78-0.19-1-0.42l-1.52-1.52c-0.23-0.23-0.15-0.42,0.17-0.42l0.98,0
								c0.32,0,0.78,0.19,1,0.42l1.52,1.52c0.23,0.23,0.15,0.42-0.17,0.42H256.7z"/>
							<path class="st18" d="M256.7,45.24c-0.32,0-0.78-0.19-1-0.42l-1.52-1.52c-0.23-0.23-0.15-0.42,0.17-0.42l0.98,0
								c0.32,0,0.78,0.19,1,0.42l1.52,1.52c0.23,0.23,0.15,0.42-0.17,0.42H256.7z"/>
						</g>
						<g>
							<path class="st17" d="M261.9,43.97c0,0.32-0.19,0.4-0.42,0.17l-0.84-0.84c-0.23-0.23-0.15-0.42,0.17-0.42h0.49
								c0.32,0,0.59,0.26,0.59,0.59V43.97z"/>
							<path class="st18" d="M261.9,43.97c0,0.32-0.19,0.4-0.42,0.17l-0.84-0.84c-0.23-0.23-0.15-0.42,0.17-0.42h0.49
								c0.32,0,0.59,0.26,0.59,0.59V43.97z"/>
						</g>
						<g>
							<path class="st17" d="M258.86,45.24c-0.32,0-0.78-0.19-1-0.42l-1.52-1.52c-0.23-0.23-0.15-0.42,0.17-0.42h0.98
								c0.32,0,0.78,0.19,1,0.42l1.52,1.52c0.23,0.23,0.15,0.42-0.17,0.42H258.86z"/>
							<path class="st18" d="M258.86,45.24c-0.32,0-0.78-0.19-1-0.42l-1.52-1.52c-0.23-0.23-0.15-0.42,0.17-0.42h0.98
								c0.32,0,0.78,0.19,1,0.42l1.52,1.52c0.23,0.23,0.15,0.42-0.17,0.42H258.86z"/>
						</g>
					</g>
				</g>
				<path class="st14" d="M253.56,46.63c0.42-0.07,0.81,0.21,0.87,0.63c0.07,0.42-0.21,0.81-0.63,0.87"/>
				<path class="st21" d="M251.5,49.1c0.58,0.94,1.62,1.49,2.7,1.42c1.48-0.1,2.24-1.3,2.32-1.42"/>
				<g>
					<g>
						<g>
							<g>
								<circle class="st6" cx="250.75" cy="46.67" r="0.96"/>
							</g>
							<circle class="st2" cx="250.67" cy="46.52" r="0.19"/>
						</g>
					</g>
					<g>
						<g>
							<circle class="st6" cx="257.27" cy="46.67" r="0.96"/>
							<circle class="st2" cx="257.34" cy="46.52" r="0.19"/>
						</g>
					</g>
				</g>
			</g>
			<g>
				<g>
					<defs>
						<path id="XMLID_3_" d="M245.8,41.09c-0.01-4.5,3.63-8.15,8.12-8.16c4.5-0.01,8.15,3.63,8.16,8.12L245.8,41.09z"/>
					</defs>
					<use xlink:href="#XMLID_3_"  style="overflow:visible;fill:#EEA7C9;"/>
					<clipPath id="XMLID_15_">
						<use xlink:href="#XMLID_3_"  style="overflow:visible;"/>
					</clipPath>
					<circle class="st22" cx="248.4" cy="40.51" r="1.57"/>
					<circle class="st22" cx="248.79" cy="34.04" r="1.57"/>
					<circle class="st22" cx="253.01" cy="34.04" r="1.57"/>
					<circle class="st22" cx="257.22" cy="34.04" r="1.57"/>
					<circle class="st22" cx="253.01" cy="40.51" r="1.57"/>
					<circle class="st22" cx="257.62" cy="40.51" r="1.57"/>
					<circle class="st22" cx="262.23" cy="40.51" r="1.57"/>
					<circle class="st22" cx="246.14" cy="37.38" r="1.57"/>
					<circle class="st22" cx="250.26" cy="37.38" r="1.57"/>
					<circle class="st22" cx="254.38" cy="37.38" r="1.57"/>
					<circle class="st22" cx="258.5" cy="37.38" r="1.57"/>
					<use xlink:href="#XMLID_3_"  style="overflow:visible;fill:none;stroke:#231F20;stroke-width:0.4904;stroke-miterlimit:10;"/>
				</g>
				<g>
					<defs>
						<path id="XMLID_4_" d="M264.82,44.14h-21.75c-0.15,0-0.24-0.21-0.14-0.35l1.18-1.84c0.23-0.36,0.59-0.57,0.97-0.57h17.24
							c0.31,0,0.61,0.14,0.83,0.39l1.79,2C265.06,43.9,264.98,44.14,264.82,44.14z"/>
					</defs>
					<use xlink:href="#XMLID_4_"  style="overflow:visible;fill:#EEA7C9;"/>
					<clipPath id="XMLID_16_">
						<use xlink:href="#XMLID_4_"  style="overflow:visible;"/>
					</clipPath>
					<circle class="st23" cx="247.05" cy="41" r="1.57"/>
					<circle class="st23" cx="251.86" cy="41" r="1.57"/>
					<circle class="st23" cx="256.66" cy="41" r="1.57"/>
					<circle class="st23" cx="261.47" cy="41" r="1.57"/>
					<circle class="st23" cx="243.81" cy="43.95" r="1.57"/>
					<circle class="st23" cx="249.21" cy="43.95" r="1.57"/>
					<circle class="st23" cx="254.6" cy="43.95" r="1.57"/>
					<circle class="st23" cx="260" cy="43.95" r="1.57"/>
					<circle class="st23" cx="265.39" cy="43.95" r="1.57"/>
					<use xlink:href="#XMLID_4_"  style="overflow:visible;fill:none;stroke:#231F20;stroke-width:0.4904;stroke-miterlimit:10;"/>
				</g>
				<g>
					<path class="st24" d="M259.94,31.67c-0.05-0.03-0.1-0.05-0.15-0.08c-0.88,0.45-1.61,1.24-2.1,2.25l2.25,1.9V31.67z"/>
					<path class="st24" d="M261.98,34.01c-0.46-1.03-1.18-1.86-2.05-2.34v4.07L261.98,34.01z"/>
					<path class="st25" d="M259.94,35.74l-2.25-1.9c-0.41,0.85-0.65,1.84-0.65,2.91c0,0.23,0.01,0.45,0.03,0.67l2.87,2.42V35.74z"/>
					<path class="st26" d="M261.98,34.01l-2.05,1.73v4.09l2.55-2.15c0.04-0.31,0.06-0.62,0.06-0.95
						C262.55,35.74,262.34,34.81,261.98,34.01z"/>
					<path class="st27" d="M257.07,37.41c0.2,2.04,1.27,3.74,2.73,4.47c0.04-0.02,0.09-0.05,0.13-0.07v-1.98L257.07,37.41z"/>
					<path class="st27" d="M259.94,41.82c1.32-0.74,2.3-2.28,2.55-4.14l-2.55,2.15V41.82z"/>
				</g>
				<g>
					<g>
						<g>
							<path class="st28" d="M250.42,39.11c-0.32,0-0.78,0.19-1,0.42l-1.52,1.52c-0.23,0.23-0.15,0.42,0.17,0.42l0.98,0
								c0.32,0,0.78-0.19,1-0.42l1.52-1.52c0.23-0.23,0.15-0.42-0.17-0.42L250.42,39.11z"/>
							<path class="st29" d="M250.42,39.11c-0.32,0-0.78,0.19-1,0.42l-1.52,1.52c-0.23,0.23-0.15,0.42,0.17,0.42l0.98,0
								c0.32,0,0.78-0.19,1-0.42l1.52-1.52c0.23-0.23,0.15-0.42-0.17-0.42L250.42,39.11z"/>
						</g>
						<g>
							<path class="st28" d="M246.4,39.12c-0.32,0-0.59,0.27-0.59,0.59l0,0.69c0,0.32,0.19,0.4,0.42,0.17l1.03-1.03
								c0.23-0.23,0.15-0.42-0.17-0.42L246.4,39.12z"/>
							<path class="st29" d="M246.4,39.12c-0.32,0-0.59,0.27-0.59,0.59l0,0.69c0,0.32,0.19,0.4,0.42,0.17l1.03-1.03
								c0.23-0.23,0.15-0.42-0.17-0.42L246.4,39.12z"/>
						</g>
						<g>
							<path class="st28" d="M254.74,39.1c-0.32,0-0.78,0.19-1,0.42l-1.52,1.52c-0.23,0.23-0.15,0.42,0.17,0.42l0.98,0
								c0.32,0,0.78-0.19,1-0.42l1.52-1.52c0.23-0.23,0.15-0.42-0.17-0.42L254.74,39.1z"/>
							<path class="st29" d="M254.74,39.1c-0.32,0-0.78,0.19-1,0.42l-1.52,1.52c-0.23,0.23-0.15,0.42,0.17,0.42l0.98,0
								c0.32,0,0.78-0.19,1-0.42l1.52-1.52c0.23-0.23,0.15-0.42-0.17-0.42L254.74,39.1z"/>
						</g>
						<g>
							<path class="st28" d="M248.27,39.11c-0.32,0-0.78,0.19-1,0.42l-1.03,1.03c-0.23,0.23-0.42,0.53-0.41,0.66
								c0,0.13,0.27,0.24,0.59,0.24l0.49,0c0.32,0,0.78-0.19,1-0.42l1.52-1.52c0.23-0.23,0.15-0.42-0.17-0.42L248.27,39.11z"/>
							<path class="st29" d="M248.27,39.11c-0.32,0-0.78,0.19-1,0.42l-1.03,1.03c-0.23,0.23-0.42,0.53-0.41,0.66
								c0,0.13,0.27,0.24,0.59,0.24l0.49,0c0.32,0,0.78-0.19,1-0.42l1.52-1.52c0.23-0.23,0.15-0.42-0.17-0.42L248.27,39.11z"/>
						</g>
						<g>
							<path class="st28" d="M252.58,39.1c-0.32,0-0.78,0.19-1,0.42l-1.52,1.52c-0.23,0.23-0.15,0.42,0.17,0.42l0.98,0
								c0.32,0,0.78-0.19,1-0.42l1.52-1.52c0.23-0.23,0.15-0.42-0.17-0.42L252.58,39.1z"/>
							<path class="st29" d="M252.58,39.1c-0.32,0-0.78,0.19-1,0.42l-1.52,1.52c-0.23,0.23-0.15,0.42,0.17,0.42l0.98,0
								c0.32,0,0.78-0.19,1-0.42l1.52-1.52c0.23-0.23,0.15-0.42-0.17-0.42L252.58,39.1z"/>
						</g>
						<g>
							<path class="st28" d="M262.1,39.43c0-0.19-0.27-0.34-0.59-0.34l-0.29,0c-0.32,0-0.78,0.19-1,0.42l-1.52,1.52
								c-0.23,0.23-0.15,0.42,0.17,0.42l0.98,0c0.32,0,0.78-0.19,1-0.42l0.83-0.84C261.91,39.96,262.1,39.62,262.1,39.43z"/>
							<path class="st29" d="M262.1,39.43c0-0.19-0.27-0.34-0.59-0.34l-0.29,0c-0.32,0-0.78,0.19-1,0.42l-1.52,1.52
								c-0.23,0.23-0.15,0.42,0.17,0.42l0.98,0c0.32,0,0.78-0.19,1-0.42l0.83-0.84C261.91,39.96,262.1,39.62,262.1,39.43z"/>
						</g>
						<g>
							<path class="st28" d="M256.9,39.09c-0.32,0-0.78,0.19-1,0.42l-1.52,1.52c-0.23,0.23-0.15,0.42,0.17,0.42l0.98,0
								c0.32,0,0.78-0.19,1-0.42l1.52-1.52c0.23-0.23,0.15-0.42-0.17-0.42L256.9,39.09z"/>
							<path class="st29" d="M256.9,39.09c-0.32,0-0.78,0.19-1,0.42l-1.52,1.52c-0.23,0.23-0.15,0.42,0.17,0.42l0.98,0
								c0.32,0,0.78-0.19,1-0.42l1.52-1.52c0.23-0.23,0.15-0.42-0.17-0.42L256.9,39.09z"/>
						</g>
						<g>
							<path class="st28" d="M262.1,40.36c0-0.32-0.19-0.4-0.42-0.17l-0.83,0.84c-0.23,0.23-0.15,0.42,0.17,0.42l0.49,0
								c0.32,0,0.59-0.27,0.59-0.59L262.1,40.36z"/>
							<path class="st29" d="M262.1,40.36c0-0.32-0.19-0.4-0.42-0.17l-0.83,0.84c-0.23,0.23-0.15,0.42,0.17,0.42l0.49,0
								c0.32,0,0.59-0.27,0.59-0.59L262.1,40.36z"/>
						</g>
						<g>
							<path class="st28" d="M259.05,39.09c-0.32,0-0.78,0.19-1,0.42l-1.52,1.52c-0.23,0.23-0.15,0.42,0.17,0.42l0.98,0
								c0.32,0,0.78-0.19,1-0.42l1.52-1.52c0.23-0.23,0.15-0.42-0.17-0.42L259.05,39.09z"/>
							<path class="st29" d="M259.05,39.09c-0.32,0-0.78,0.19-1,0.42l-1.52,1.52c-0.23,0.23-0.15,0.42,0.17,0.42l0.98,0
								c0.32,0,0.78-0.19,1-0.42l1.52-1.52c0.23-0.23,0.15-0.42-0.17-0.42L259.05,39.09z"/>
						</g>
					</g>
				</g>
			</g>
			<path class="st6" d="M254.64,90c0-1.54,1.25-2.8,2.8-2.8c1.54,0,2.8,1.25,2.8,2.8H254.64z"/>
			<path class="st30" d="M249.56,65.87l-0.27-0.01c-0.2-0.01-0.35-0.18-0.34-0.37l0.58-11.34c0.01-0.2,0.18-0.35,0.37-0.34
				l0.27,0.01c0.2,0.01,0.35,0.18,0.34,0.37l-0.58,11.34C249.92,65.73,249.76,65.88,249.56,65.87z"/>
			<path class="st30" d="M248.24,72.83h-1.14c-0.82,0-1.49-0.67-1.49-1.49v-6.6c0-0.82,0.67-1.49,1.49-1.49h1.14
				c0.82,0,1.49,0.67,1.49,1.49v6.6C249.73,72.17,249.07,72.83,248.24,72.83z"/>
			<path class="st31" d="M249.73,46.15c-0.04,0.01-0.2,0.08-0.39,0c-0.2-0.08-0.28-0.26-0.29-0.29"/>
			<path class="st31" d="M250.03,45.86c-0.04,0.01-0.2,0.08-0.39,0c-0.2-0.08-0.28-0.26-0.29-0.29"/>
			<path class="st31" d="M258.37,46.15c0.04,0.01,0.2,0.08,0.39,0c0.2-0.08,0.28-0.26,0.29-0.29"/>
			<path class="st31" d="M258.07,45.86c0.04,0.01,0.2,0.08,0.39,0c0.2-0.08,0.28-0.26,0.29-0.29"/>
			<circle class="st2" cx="246.15" cy="48.17" r="0.54"/>
			<circle class="st2" cx="253.51" cy="55.72" r="0.1"/>
			<circle class="st2" cx="252.82" cy="55.23" r="0.1"/>
			<circle class="st2" cx="254.39" cy="55.72" r="0.1"/>
		</g>
		<rect x="269.34" y="43" class="st32" width="199.66" height="46.09"/>
		<text transform="matrix(1 0 0 1 269.3398 58.54)"><tspan x="0" y="0" class="st33 st34 st35">걸스카우트 </tspan><tspan x="0" y="16.8" class="st36 st37 st38">Girl Scouts Korea</tspan></text>
	</g>
	<g>
		<g>
			<g>
				<path class="st39" d="M193.29,255.95h-8.07l-0.39,10.19c2.95,0,5.9,0,8.85,0L193.29,255.95z"/>
				<g>
					<defs>
						<path id="XMLID_10_" d="M184.83,266.14l-0.46,11.89h9.76l-0.46-11.89C190.73,266.14,187.78,266.14,184.83,266.14z"/>
					</defs>
					<use xlink:href="#XMLID_10_"  style="overflow:visible;fill:#020202;"/>
					<clipPath id="XMLID_17_">
						<use xlink:href="#XMLID_10_"  style="overflow:visible;"/>
					</clipPath>
					<rect x="184.91" y="266.46" class="st40" width="1.27" height="4.67"/>
					<rect x="186.39" y="266.46" class="st40" width="1.27" height="4.67"/>
					<rect x="187.88" y="266.46" class="st40" width="1.27" height="4.67"/>
					<rect x="189.36" y="266.46" class="st40" width="1.27" height="4.67"/>
					<rect x="190.85" y="266.46" class="st40" width="1.27" height="4.67"/>
					<rect x="192.34" y="266.46" class="st40" width="1.27" height="4.67"/>
					<rect x="193.82" y="266.46" class="st40" width="1.27" height="4.67"/>
					
						<use xlink:href="#XMLID_10_"  style="overflow:visible;fill:none;stroke:#231F20;stroke-width:1.0614;stroke-linejoin:round;stroke-miterlimit:10;"/>
				</g>
			</g>
			<g>
				<path class="st39" d="M179.92,255.95h-8.07l-0.39,10.19c2.95,0,5.9,0,8.85,0L179.92,255.95z"/>
				<g>
					<defs>
						<path id="XMLID_9_" d="M171.46,266.14L171,278.03h9.76l-0.46-11.89C177.36,266.14,174.41,266.14,171.46,266.14z"/>
					</defs>
					<use xlink:href="#XMLID_9_"  style="overflow:visible;fill:#020202;"/>
					<clipPath id="XMLID_18_">
						<use xlink:href="#XMLID_9_"  style="overflow:visible;"/>
					</clipPath>
					<rect x="171.53" y="266.46" class="st41" width="1.27" height="4.67"/>
					<rect x="173.02" y="266.46" class="st41" width="1.27" height="4.67"/>
					<rect x="174.5" y="266.46" class="st41" width="1.27" height="4.67"/>
					<rect x="175.99" y="266.46" class="st41" width="1.27" height="4.67"/>
					<rect x="177.48" y="266.46" class="st41" width="1.27" height="4.67"/>
					<rect x="178.96" y="266.46" class="st41" width="1.27" height="4.67"/>
					<rect x="180.45" y="266.46" class="st41" width="1.27" height="4.67"/>
					
						<use xlink:href="#XMLID_9_"  style="overflow:visible;fill:none;stroke:#231F20;stroke-width:1.0614;stroke-linejoin:round;stroke-miterlimit:10;"/>
				</g>
			</g>
			<path class="st42" d="M169.94,281c0-3.34,2.71-6.05,6.05-6.05s6.05,2.71,6.05,6.05H169.94z"/>
			<g>
				<g>
					<rect x="169.2" y="228.89" class="st43" width="25.47" height="29.51"/>
					<path class="st44" d="M193.58,258.92h-4.23c-0.05,0-0.1-0.04-0.1-0.1v-15.01c0-0.1,0.14-0.12,0.16-0.02l4.26,15.01
						C193.7,258.86,193.65,258.92,193.58,258.92z"/>
					<path class="st44" d="M170.71,258.92h4.23c0.05,0,0.1-0.04,0.1-0.1v-15.01c0-0.1-0.14-0.12-0.16-0.02l-4.26,15.01
						C170.59,258.86,170.64,258.92,170.71,258.92z"/>
					<path class="st44" d="M184.64,259.14h-5.57c-0.31,0-0.54-0.33-0.47-0.67l3.06-14.73c0.12-0.57,0.84-0.55,0.94,0.02l2.5,14.73
						C185.17,258.83,184.94,259.14,184.64,259.14z"/>
				</g>
				<rect x="169.25" y="228.36" class="st45" width="25.47" height="4.03"/>
				<rect x="179.97" y="228.36" class="st46" width="4.03" height="4.03"/>
				<path class="st47" d="M180.24,228.57c1,0,1.8,0.81,1.8,1.8c0,1-0.81,1.8-1.8,1.8"/>
			</g>
			<g>
				<path class="st48" d="M161.72,225.14l-0.5,1.91c-0.65,2.5,0.87,5.06,3.39,5.72c2.52,0.65,5.09-0.85,5.74-3.35l0.5-1.91
					C167.81,226.71,164.76,225.93,161.72,225.14z"/>
				<path class="st49" d="M175.47,209.68c0.65-2.5-0.87-5.06-3.39-5.72c-2.52-0.65-5.09,0.85-5.74,3.35l-4.62,17.83
					c3.04,0.79,6.09,1.58,9.13,2.37L175.47,209.68z"/>
			</g>
			<g>
				<path class="st48" d="M202.18,225.14l0.5,1.91c0.65,2.5-0.87,5.06-3.39,5.72c-2.52,0.65-5.09-0.85-5.74-3.35l-0.5-1.91
					C196.1,226.71,199.14,225.93,202.18,225.14z"/>
				<path class="st49" d="M188.43,209.68c-0.65-2.5,0.87-5.06,3.39-5.72c2.52-0.65,5.09,0.85,5.74,3.35l4.62,17.83
					c-3.04,0.79-6.09,1.58-9.13,2.37L188.43,209.68z"/>
			</g>
			<rect x="177.58" y="197.36" class="st50" width="8.92" height="8.07"/>
			<circle class="st48" cx="201.93" cy="232.3" r="3.71"/>
			<path class="st51" d="M173.76,228.78h16.56c0.7,0,1.27,0.57,1.27,1.27v2.12c0,0.7,0.57,1.27,1.27,1.27h5.84
				c0.83,0,1.44-0.78,1.23-1.59l-7.08-27.6c-0.14-0.56-0.65-0.96-1.23-0.96h-3.53c-0.7,0-1.27,0.57-1.27,1.27l0,0
				c0,0.7-0.57,1.27-1.27,1.27h-7.01c-0.7,0-1.27-0.57-1.27-1.27l0,0c0-0.7-0.57-1.27-1.27-1.27h-3.53c-0.58,0-1.09,0.39-1.23,0.96
				l-7.08,27.6c-0.21,0.81,0.4,1.59,1.23,1.59h5.84c0.7,0,1.27-0.57,1.27-1.27v-2.12C172.49,229.35,173.06,228.78,173.76,228.78z"/>
			<g>
				<circle class="st16" cx="185.88" cy="205.05" r="1.11"/>
				<circle class="st16" cx="178.2" cy="205.05" r="1.11"/>
				<circle class="st16" cx="179.48" cy="206.33" r="1.11"/>
				<circle class="st16" cx="181.02" cy="207.19" r="1.11"/>
				<circle class="st16" cx="184.6" cy="206.33" r="1.11"/>
				<circle class="st16" cx="183.06" cy="207.19" r="1.11"/>
			</g>
			<g>
				<g>
					<path class="st17" d="M201.99,187.81c0,6.42-5.25,11.68-11.68,11.68h-18.04c-6.42,0-11.68-5.25-11.68-11.68v-0.42
						c0-6.42,5.25-11.68,11.68-11.68h18.04c6.42,0,11.68,5.25,11.68,11.68V187.81z"/>
					<path class="st52" d="M201.99,187.81c0,6.42-5.25,11.68-11.68,11.68h-18.04c-6.42,0-11.68-5.25-11.68-11.68v-0.42
						c0-6.42,5.25-11.68,11.68-11.68h18.04c6.42,0,11.68,5.25,11.68,11.68V187.81z"/>
				</g>
				<path class="st53" d="M197.54,223.66c-0.44-1.9-2.39-3.07-4.35-2.62s-3.19,2.36-2.75,4.26s3.1,6.15,5.06,5.69
					S197.98,225.56,197.54,223.66z"/>
				<g>
					<g>
						<g>
							<path class="st17" d="M193.16,209.06c-0.04-0.7-0.49-1.66-1.01-2.12l-3.46-3.11c-0.52-0.47-0.92-0.28-0.88,0.42l0.11,2.12
								c0.04,0.7,0.49,1.66,1.01,2.12l3.46,3.11c0.52,0.47,0.92,0.28,0.88-0.42L193.16,209.06z"/>
							<path class="st52" d="M193.16,209.06c-0.04-0.7-0.49-1.66-1.01-2.12l-3.46-3.11c-0.52-0.47-0.92-0.28-0.88,0.42l0.11,2.12
								c0.04,0.7,0.49,1.66,1.01,2.12l3.46,3.11c0.52,0.47,0.92,0.28,0.88-0.42L193.16,209.06z"/>
						</g>
						<g>
							<path class="st17" d="M192.66,199.74c-0.04-0.7-0.49-1.66-1.01-2.12l-3.46-3.11c-0.52-0.47-0.92-0.28-0.88,0.42l0.11,2.12
								c0.04,0.7,0.49,1.66,1.01,2.12l3.46,3.11c0.52,0.47,0.92,0.28,0.88-0.42L192.66,199.74z"/>
							<path class="st52" d="M192.66,199.74c-0.04-0.7-0.49-1.66-1.01-2.12l-3.46-3.11c-0.52-0.47-0.92-0.28-0.88,0.42l0.11,2.12
								c0.04,0.7,0.49,1.66,1.01,2.12l3.46,3.11c0.52,0.47,0.92,0.28,0.88-0.42L192.66,199.74z"/>
						</g>
						<g>
							<path class="st17" d="M192.2,191.04c-0.04-0.7-0.64-1.24-1.34-1.2l-1.48,0.08c-0.7,0.04-0.85,0.45-0.32,0.92l2.35,2.11
								c0.52,0.47,0.92,0.28,0.88-0.42L192.2,191.04z"/>
							<path class="st52" d="M192.2,191.04c-0.04-0.7-0.64-1.24-1.34-1.2l-1.48,0.08c-0.7,0.04-0.85,0.45-0.32,0.92l2.35,2.11
								c0.52,0.47,0.92,0.28,0.88-0.42L192.2,191.04z"/>
						</g>
						<g>
							<path class="st17" d="M192.42,195.07c-0.04-0.7-0.49-1.66-1.01-2.12l-2.35-2.11c-0.52-0.47-1.19-0.84-1.48-0.82
								s-0.5,0.6-0.46,1.3l0.06,1.06c0.04,0.7,0.49,1.66,1.01,2.12l3.46,3.11c0.52,0.47,0.92,0.28,0.88-0.42L192.42,195.07z"/>
							<path class="st52" d="M192.42,195.07c-0.04-0.7-0.49-1.66-1.01-2.12l-2.35-2.11c-0.52-0.47-1.19-0.84-1.48-0.82
								s-0.5,0.6-0.46,1.3l0.06,1.06c0.04,0.7,0.49,1.66,1.01,2.12l3.46,3.11c0.52,0.47,0.92,0.28,0.88-0.42L192.42,195.07z"/>
						</g>
						<g>
							<path class="st17" d="M192.91,204.4c-0.04-0.7-0.49-1.66-1.01-2.12l-3.46-3.11c-0.52-0.47-0.92-0.28-0.88,0.42l0.11,2.12
								c0.04,0.7,0.49,1.66,1.01,2.12l3.46,3.11c0.52,0.47,0.92,0.28,0.88-0.42L192.91,204.4z"/>
							<path class="st52" d="M192.91,204.4c-0.04-0.7-0.49-1.66-1.01-2.12l-3.46-3.11c-0.52-0.47-0.92-0.28-0.88,0.42l0.11,2.12
								c0.04,0.7,0.49,1.66,1.01,2.12l3.46,3.11c0.52,0.47,0.92,0.28,0.88-0.42L192.91,204.4z"/>
						</g>
						<g>
							<path class="st17" d="M193.26,225c0.41-0.02,0.71-0.61,0.67-1.31l-0.03-0.64c-0.04-0.7-0.49-1.66-1.01-2.12l-3.46-3.11
								c-0.52-0.47-0.92-0.28-0.88,0.42l0.11,2.12c0.04,0.7,0.49,1.66,1.01,2.12l1.9,1.71C192.09,224.66,192.85,225.02,193.26,225z"
								/>
							<path class="st52" d="M193.26,225c0.41-0.02,0.71-0.61,0.67-1.31l-0.03-0.64c-0.04-0.7-0.49-1.66-1.01-2.12l-3.46-3.11
								c-0.52-0.47-0.92-0.28-0.88,0.42l0.11,2.12c0.04,0.7,0.49,1.66,1.01,2.12l1.9,1.71C192.09,224.66,192.85,225.02,193.26,225z"
								/>
						</g>
						<g>
							<path class="st17" d="M193.41,213.73c-0.04-0.7-0.49-1.66-1.01-2.12l-3.46-3.11c-0.52-0.47-0.92-0.28-0.88,0.42l0.11,2.12
								c0.04,0.7,0.49,1.66,1.01,2.12l3.46,3.11c0.52,0.47,0.92,0.28,0.88-0.42L193.41,213.73z"/>
							<path class="st52" d="M193.41,213.73c-0.04-0.7-0.49-1.66-1.01-2.12l-3.46-3.11c-0.52-0.47-0.92-0.28-0.88,0.42l0.11,2.12
								c0.04,0.7,0.49,1.66,1.01,2.12l3.46,3.11c0.52,0.47,0.92,0.28,0.88-0.42L193.41,213.73z"/>
						</g>
						<g>
							<path class="st17" d="M193.65,218.39c-0.04-0.7-0.49-1.66-1.01-2.12l-3.46-3.11c-0.52-0.47-0.92-0.28-0.88,0.42l0.11,2.12
								c0.04,0.7,0.49,1.66,1.01,2.12l3.46,3.11c0.52,0.47,0.92,0.28,0.88-0.42L193.65,218.39z"/>
							<path class="st52" d="M193.65,218.39c-0.04-0.7-0.49-1.66-1.01-2.12l-3.46-3.11c-0.52-0.47-0.92-0.28-0.88,0.42l0.11,2.12
								c0.04,0.7,0.49,1.66,1.01,2.12l3.46,3.11c0.52,0.47,0.92,0.28,0.88-0.42L193.65,218.39z"/>
						</g>
					</g>
				</g>
				<g>
					<g>
						<g>
							<path class="st17" d="M191.83,199.99c-0.04-0.7,0.32-1.7,0.78-2.22l3.11-3.46c0.47-0.52,0.88-0.37,0.92,0.32l0.11,2.12
								c0.04,0.7-0.32,1.7-0.78,2.22l-3.11,3.46c-0.47,0.52-0.88,0.37-0.92-0.32L191.83,199.99z"/>
							<path class="st52" d="M191.83,199.99c-0.04-0.7,0.32-1.7,0.78-2.22l3.11-3.46c0.47-0.52,0.88-0.37,0.92,0.32l0.11,2.12
								c0.04,0.7-0.32,1.7-0.78,2.22l-3.11,3.46c-0.47,0.52-0.88,0.37-0.92-0.32L191.83,199.99z"/>
						</g>
						<g>
							<path class="st17" d="M191.37,191.3c-0.04-0.7,0.51-1.3,1.2-1.34l1.48-0.08c0.7-0.04,0.89,0.36,0.42,0.88l-2.11,2.35
								c-0.47,0.52-0.88,0.37-0.92-0.32L191.37,191.3z"/>
							<path class="st52" d="M191.37,191.3c-0.04-0.7,0.51-1.3,1.2-1.34l1.48-0.08c0.7-0.04,0.89,0.36,0.42,0.88l-2.11,2.35
								c-0.47,0.52-0.88,0.37-0.92-0.32L191.37,191.3z"/>
						</g>
						<g>
							<path class="st17" d="M192.32,209.32c-0.04-0.7,0.32-1.7,0.78-2.22l3.11-3.46c0.47-0.52,0.88-0.37,0.92,0.32l0.11,2.12
								c0.04,0.7-0.32,1.7-0.78,2.22l-3.11,3.46c-0.47,0.52-0.88,0.37-0.92-0.32L192.32,209.32z"/>
							<path class="st52" d="M192.32,209.32c-0.04-0.7,0.32-1.7,0.78-2.22l3.11-3.46c0.47-0.52,0.88-0.37,0.92,0.32l0.11,2.12
								c0.04,0.7-0.32,1.7-0.78,2.22l-3.11,3.46c-0.47,0.52-0.88,0.37-0.92-0.32L192.32,209.32z"/>
						</g>
						<g>
							<path class="st17" d="M191.58,195.33c-0.04-0.7,0.32-1.7,0.78-2.22l2.11-2.35c0.47-0.52,1.09-0.96,1.38-0.98
								s0.56,0.54,0.6,1.24l0.06,1.06c0.04,0.7-0.32,1.7-0.78,2.22l-3.11,3.46c-0.47,0.52-0.88,0.37-0.92-0.32L191.58,195.33z"/>
							<path class="st52" d="M191.58,195.33c-0.04-0.7,0.32-1.7,0.78-2.22l2.11-2.35c0.47-0.52,1.09-0.96,1.38-0.98
								s0.56,0.54,0.6,1.24l0.06,1.06c0.04,0.7-0.32,1.7-0.78,2.22l-3.11,3.46c-0.47,0.52-0.88,0.37-0.92-0.32L191.58,195.33z"/>
						</g>
						<g>
							<path class="st17" d="M192.07,204.66c-0.04-0.7,0.32-1.7,0.78-2.22l3.11-3.46c0.47-0.52,0.88-0.37,0.92,0.32l0.11,2.12
								c0.04,0.7-0.32,1.7-0.78,2.22l-3.11,3.46c-0.47,0.52-0.88,0.37-0.92-0.32L192.07,204.66z"/>
							<path class="st52" d="M192.07,204.66c-0.04-0.7,0.32-1.7,0.78-2.22l3.11-3.46c0.47-0.52,0.88-0.37,0.92,0.32l0.11,2.12
								c0.04,0.7-0.32,1.7-0.78,2.22l-3.11,3.46c-0.47,0.52-0.88,0.37-0.92-0.32L192.07,204.66z"/>
						</g>
						<g>
							<path class="st17" d="M193.91,225.18c-0.41,0.02-0.77-0.53-0.81-1.23l-0.03-0.64c-0.04-0.7,0.32-1.7,0.78-2.22l3.11-3.46
								c0.47-0.52,0.88-0.37,0.92,0.32l0.11,2.12c0.04,0.7-0.32,1.7-0.78,2.22l-1.71,1.9C195.03,224.71,194.31,225.16,193.91,225.18
								z"/>
							<path class="st52" d="M193.91,225.18c-0.41,0.02-0.77-0.53-0.81-1.23l-0.03-0.64c-0.04-0.7,0.32-1.7,0.78-2.22l3.11-3.46
								c0.47-0.52,0.88-0.37,0.92,0.32l0.11,2.12c0.04,0.7-0.32,1.7-0.78,2.22l-1.71,1.9C195.03,224.71,194.31,225.16,193.91,225.18
								z"/>
						</g>
						<g>
							<path class="st17" d="M192.57,213.98c-0.04-0.7,0.32-1.7,0.78-2.22l3.11-3.46c0.47-0.52,0.88-0.37,0.92,0.32l0.11,2.12
								c0.04,0.7-0.32,1.7-0.78,2.22l-3.11,3.46c-0.47,0.52-0.88,0.37-0.92-0.32L192.57,213.98z"/>
							<path class="st52" d="M192.57,213.98c-0.04-0.7,0.32-1.7,0.78-2.22l3.11-3.46c0.47-0.52,0.88-0.37,0.92,0.32l0.11,2.12
								c0.04,0.7-0.32,1.7-0.78,2.22l-3.11,3.46c-0.47,0.52-0.88,0.37-0.92-0.32L192.57,213.98z"/>
						</g>
						<g>
							<path class="st17" d="M192.82,218.65c-0.04-0.7,0.32-1.7,0.78-2.22l3.11-3.46c0.47-0.52,0.88-0.37,0.92,0.32l0.11,2.12
								c0.04,0.7-0.32,1.7-0.78,2.22l-3.11,3.46c-0.47,0.52-0.88,0.37-0.92-0.32L192.82,218.65z"/>
							<path class="st52" d="M192.82,218.65c-0.04-0.7,0.32-1.7,0.78-2.22l3.11-3.46c0.47-0.52,0.88-0.37,0.92,0.32l0.11,2.12
								c0.04,0.7-0.32,1.7-0.78,2.22l-3.11,3.46c-0.47,0.52-0.88,0.37-0.92-0.32L192.82,218.65z"/>
						</g>
					</g>
				</g>
				<path class="st50" d="M163.73,183.93c-1.75,0.49-2.77,2.31-2.28,4.06c0.49,1.75,2.31,2.77,4.06,2.28"/>
				<path class="st50" d="M199.5,183.93c1.75,0.49,2.77,2.31,2.28,4.06c-0.49,1.75-2.31,2.77-4.06,2.28"/>
				<g>
					<defs>
						<path id="XMLID_8_" d="M199.78,182.08c0,9.85-7.98,17.83-17.83,17.83s-17.83-7.98-17.83-17.83H199.78z"/>
					</defs>
					<use xlink:href="#XMLID_8_"  style="overflow:visible;fill:#FFEDDF;"/>
					<clipPath id="XMLID_19_">
						<use xlink:href="#XMLID_8_"  style="overflow:visible;"/>
					</clipPath>
					<circle class="st54" cx="170.68" cy="194.92" r="4.46"/>
					<circle class="st54" cx="193.21" cy="194.92" r="4.46"/>
					
						<use xlink:href="#XMLID_8_"  style="overflow:visible;fill:none;stroke:#231F20;stroke-width:1.0614;stroke-linecap:round;stroke-linejoin:round;stroke-miterlimit:10;"/>
				</g>
				<g>
					<g>
						<g>
							<path class="st17" d="M173.76,184.14c-0.7,0-1.68-0.41-2.17-0.9l-3.29-3.29c-0.5-0.5-0.33-0.9,0.37-0.9h2.12
								c0.7,0,1.68,0.41,2.17,0.9l3.29,3.29c0.5,0.5,0.33,0.9-0.37,0.9H173.76z"/>
							<path class="st52" d="M173.76,184.14c-0.7,0-1.68-0.41-2.17-0.9l-3.29-3.29c-0.5-0.5-0.33-0.9,0.37-0.9h2.12
								c0.7,0,1.68,0.41,2.17,0.9l3.29,3.29c0.5,0.5,0.33,0.9-0.37,0.9H173.76z"/>
						</g>
						<g>
							<path class="st17" d="M165.06,184.14c-0.7,0-1.27-0.57-1.27-1.27l0-1.49c0-0.7,0.41-0.87,0.9-0.37l2.23,2.23
								c0.5,0.5,0.33,0.9-0.37,0.9H165.06z"/>
							<path class="st52" d="M165.06,184.14c-0.7,0-1.27-0.57-1.27-1.27l0-1.49c0-0.7,0.41-0.87,0.9-0.37l2.23,2.23
								c0.5,0.5,0.33,0.9-0.37,0.9H165.06z"/>
						</g>
						<g>
							<path class="st17" d="M183.1,184.14c-0.7,0-1.68-0.41-2.17-0.9l-3.29-3.29c-0.5-0.5-0.33-0.9,0.37-0.9h2.12
								c0.7,0,1.68,0.41,2.17,0.9l3.29,3.29c0.5,0.5,0.33,0.9-0.37,0.9L183.1,184.14z"/>
							<path class="st52" d="M183.1,184.14c-0.7,0-1.68-0.41-2.17-0.9l-3.29-3.29c-0.5-0.5-0.33-0.9,0.37-0.9h2.12
								c0.7,0,1.68,0.41,2.17,0.9l3.29,3.29c0.5,0.5,0.33,0.9-0.37,0.9L183.1,184.14z"/>
						</g>
						<g>
							<path class="st17" d="M169.09,184.14c-0.7,0-1.68-0.41-2.17-0.9l-2.23-2.23c-0.5-0.5-0.9-1.14-0.9-1.43s0.57-0.53,1.27-0.53
								h1.06c0.7,0,1.68,0.41,2.17,0.9l3.29,3.29c0.5,0.5,0.33,0.9-0.37,0.9H169.09z"/>
							<path class="st52" d="M169.09,184.14c-0.7,0-1.68-0.41-2.17-0.9l-2.23-2.23c-0.5-0.5-0.9-1.14-0.9-1.43s0.57-0.53,1.27-0.53
								h1.06c0.7,0,1.68,0.41,2.17,0.9l3.29,3.29c0.5,0.5,0.33,0.9-0.37,0.9H169.09z"/>
						</g>
						<g>
							<path class="st17" d="M178.43,184.14c-0.7,0-1.68-0.41-2.17-0.9l-3.29-3.29c-0.5-0.5-0.33-0.9,0.37-0.9h2.12
								c0.7,0,1.68,0.41,2.17,0.9l3.29,3.29c0.5,0.5,0.33,0.9-0.37,0.9H178.43z"/>
							<path class="st52" d="M178.43,184.14c-0.7,0-1.68-0.41-2.17-0.9l-3.29-3.29c-0.5-0.5-0.33-0.9,0.37-0.9h2.12
								c0.7,0,1.68,0.41,2.17,0.9l3.29,3.29c0.5,0.5,0.33,0.9-0.37,0.9H178.43z"/>
						</g>
						<g>
							<path class="st17" d="M199.02,183.4c0,0.41-0.57,0.74-1.27,0.74h-0.64c-0.7,0-1.68-0.41-2.17-0.9l-3.29-3.29
								c-0.5-0.5-0.33-0.9,0.37-0.9h2.12c0.7,0,1.68,0.41,2.17,0.9l1.81,1.81C198.62,182.25,199.02,182.99,199.02,183.4z"/>
							<path class="st52" d="M199.02,183.4c0,0.41-0.57,0.74-1.27,0.74h-0.64c-0.7,0-1.68-0.41-2.17-0.9l-3.29-3.29
								c-0.5-0.5-0.33-0.9,0.37-0.9h2.12c0.7,0,1.68,0.41,2.17,0.9l1.81,1.81C198.62,182.25,199.02,182.99,199.02,183.4z"/>
						</g>
						<g>
							<path class="st17" d="M187.77,184.14c-0.7,0-1.68-0.41-2.17-0.9l-3.29-3.29c-0.5-0.5-0.33-0.9,0.37-0.9h2.12
								c0.7,0,1.68,0.41,2.17,0.9l3.29,3.29c0.5,0.5,0.33,0.9-0.37,0.9H187.77z"/>
							<path class="st52" d="M187.77,184.14c-0.7,0-1.68-0.41-2.17-0.9l-3.29-3.29c-0.5-0.5-0.33-0.9,0.37-0.9h2.12
								c0.7,0,1.68,0.41,2.17,0.9l3.29,3.29c0.5,0.5,0.33,0.9-0.37,0.9H187.77z"/>
						</g>
						<g>
							<path class="st17" d="M199.02,181.38c0,0.7-0.41,0.87-0.9,0.37l-1.81-1.81c-0.5-0.5-0.33-0.9,0.37-0.9h1.06
								c0.7,0,1.27,0.57,1.27,1.27V181.38z"/>
							<path class="st52" d="M199.02,181.38c0,0.7-0.41,0.87-0.9,0.37l-1.81-1.81c-0.5-0.5-0.33-0.9,0.37-0.9h1.06
								c0.7,0,1.27,0.57,1.27,1.27V181.38z"/>
						</g>
						<g>
							<path class="st17" d="M192.44,184.14c-0.7,0-1.68-0.41-2.17-0.9l-3.29-3.29c-0.5-0.5-0.33-0.9,0.37-0.9h2.12
								c0.7,0,1.68,0.41,2.17,0.9l3.29,3.29c0.5,0.5,0.33,0.9-0.37,0.9L192.44,184.14z"/>
							<path class="st52" d="M192.44,184.14c-0.7,0-1.68-0.41-2.17-0.9l-3.29-3.29c-0.5-0.5-0.33-0.9,0.37-0.9h2.12
								c0.7,0,1.68,0.41,2.17,0.9l3.29,3.29c0.5,0.5,0.33,0.9-0.37,0.9L192.44,184.14z"/>
						</g>
					</g>
				</g>
				<path class="st50" d="M180.99,187.14c0.9-0.15,1.74,0.46,1.89,1.36c0.15,0.9-0.46,1.74-1.36,1.89"/>
				<path class="st55" d="M176.52,192.48c1.26,2.03,3.51,3.22,5.84,3.07c3.2-0.21,4.86-2.81,5.01-3.07"/>
				<g>
					<g>
						<g>
							<g>
								<circle class="st42" cx="174.89" cy="187.23" r="2.07"/>
							</g>
							<circle class="st2" cx="174.72" cy="186.89" r="0.41"/>
						</g>
					</g>
					<g>
						<g>
							<circle class="st42" cx="189" cy="187.23" r="2.07"/>
							<circle class="st2" cx="189.17" cy="186.89" r="0.41"/>
						</g>
					</g>
				</g>
			</g>
			<g>
				<g>
					<defs>
						<path id="XMLID_7_" d="M164.2,175.14c-0.02-9.73,7.85-17.63,17.58-17.65c9.73-0.02,17.63,7.85,17.65,17.58L164.2,175.14z"/>
					</defs>
					<use xlink:href="#XMLID_7_"  style="overflow:visible;fill:#EEA7C9;"/>
					<clipPath id="XMLID_20_">
						<use xlink:href="#XMLID_7_"  style="overflow:visible;"/>
					</clipPath>
					<circle class="st56" cx="169.8" cy="173.91" r="3.4"/>
					<circle class="st56" cx="170.65" cy="159.9" r="3.4"/>
					<circle class="st56" cx="179.78" cy="159.9" r="3.4"/>
					<circle class="st56" cx="188.91" cy="159.9" r="3.4"/>
					<circle class="st56" cx="179.78" cy="173.91" r="3.4"/>
					<circle class="st56" cx="189.76" cy="173.91" r="3.4"/>
					<circle class="st56" cx="199.74" cy="173.91" r="3.4"/>
					<circle class="st56" cx="164.92" cy="167.11" r="3.4"/>
					<circle class="st56" cx="173.84" cy="167.11" r="3.4"/>
					<circle class="st56" cx="182.75" cy="167.11" r="3.4"/>
					<circle class="st56" cx="191.67" cy="167.11" r="3.4"/>
					<use xlink:href="#XMLID_7_"  style="overflow:visible;fill:none;stroke:#231F20;stroke-width:1.0614;stroke-miterlimit:10;"/>
				</g>
				<g>
					<defs>
						<path id="XMLID_1_" d="M205.34,181.76h-47.06c-0.33,0-0.51-0.45-0.31-0.76l2.55-3.99c0.5-0.78,1.27-1.24,2.1-1.24h37.32
							c0.67,0,1.31,0.3,1.8,0.85l3.87,4.33C205.87,181.23,205.7,181.76,205.34,181.76z"/>
					</defs>
					<use xlink:href="#XMLID_1_"  style="overflow:visible;fill:#EEA7C9;"/>
					<clipPath id="XMLID_21_">
						<use xlink:href="#XMLID_1_"  style="overflow:visible;"/>
					</clipPath>
					<circle class="st57" cx="166.89" cy="174.97" r="3.4"/>
					<circle class="st57" cx="177.29" cy="174.97" r="3.4"/>
					<circle class="st57" cx="187.69" cy="174.97" r="3.4"/>
					<circle class="st57" cx="198.1" cy="174.97" r="3.4"/>
					<circle class="st57" cx="159.89" cy="181.34" r="3.4"/>
					<circle class="st57" cx="171.56" cy="181.34" r="3.4"/>
					<circle class="st57" cx="183.24" cy="181.34" r="3.4"/>
					<circle class="st57" cx="194.91" cy="181.34" r="3.4"/>
					<circle class="st57" cx="206.59" cy="181.34" r="3.4"/>
					<use xlink:href="#XMLID_1_"  style="overflow:visible;fill:none;stroke:#231F20;stroke-width:1.0614;stroke-miterlimit:10;"/>
				</g>
				<g>
					<path class="st58" d="M194.78,154.76c-0.11-0.06-0.21-0.12-0.32-0.17c-1.9,0.97-3.49,2.69-4.55,4.87l4.88,4.11V154.76z"/>
					<path class="st58" d="M199.21,159.83c-1-2.24-2.56-4.03-4.43-5.07v8.81L199.21,159.83z"/>
					<path class="st59" d="M194.78,163.57l-4.88-4.11c-0.89,1.83-1.4,3.98-1.4,6.29c0,0.49,0.03,0.97,0.07,1.45l6.2,5.23V163.57z"/>
					<path class="st60" d="M199.21,159.83l-4.43,3.74v8.86l5.53-4.66c0.09-0.67,0.14-1.35,0.14-2.05
						C200.44,163.58,199.99,161.57,199.21,159.83z"/>
					<path class="st61" d="M188.57,167.2c0.43,4.42,2.75,8.09,5.91,9.68c0.1-0.05,0.19-0.1,0.29-0.15v-4.3L188.57,167.2z"/>
					<path class="st61" d="M194.78,176.72c2.87-1.6,4.99-4.94,5.53-8.96l-5.53,4.66V176.72z"/>
				</g>
				<g>
					<g>
						<g>
							<path class="st28" d="M174.19,170.86c-0.7,0-1.68,0.41-2.17,0.9l-3.29,3.3c-0.49,0.5-0.33,0.9,0.37,0.9l2.12,0
								c0.7,0,1.68-0.41,2.17-0.9l3.29-3.3c0.49-0.5,0.33-0.9-0.37-0.9L174.19,170.86z"/>
							<path class="st62" d="M174.19,170.86c-0.7,0-1.68,0.41-2.17,0.9l-3.29,3.3c-0.49,0.5-0.33,0.9,0.37,0.9l2.12,0
								c0.7,0,1.68-0.41,2.17-0.9l3.29-3.3c0.49-0.5,0.33-0.9-0.37-0.9L174.19,170.86z"/>
						</g>
						<g>
							<path class="st28" d="M165.49,170.88c-0.7,0-1.27,0.58-1.27,1.28l0,1.49c0,0.7,0.41,0.87,0.9,0.37l2.23-2.24
								c0.49-0.5,0.33-0.9-0.37-0.9L165.49,170.88z"/>
							<path class="st62" d="M165.49,170.88c-0.7,0-1.27,0.58-1.27,1.28l0,1.49c0,0.7,0.41,0.87,0.9,0.37l2.23-2.24
								c0.49-0.5,0.33-0.9-0.37-0.9L165.49,170.88z"/>
						</g>
						<g>
							<path class="st28" d="M183.53,170.84c-0.7,0-1.68,0.41-2.17,0.9l-3.29,3.3c-0.49,0.5-0.33,0.9,0.37,0.9l2.12,0
								c0.7,0,1.68-0.41,2.17-0.9l3.29-3.3c0.49-0.5,0.33-0.9-0.37-0.9L183.53,170.84z"/>
							<path class="st62" d="M183.53,170.84c-0.7,0-1.68,0.41-2.17,0.9l-3.29,3.3c-0.49,0.5-0.33,0.9,0.37,0.9l2.12,0
								c0.7,0,1.68-0.41,2.17-0.9l3.29-3.3c0.49-0.5,0.33-0.9-0.37-0.9L183.53,170.84z"/>
						</g>
						<g>
							<path class="st28" d="M169.52,170.87c-0.7,0-1.68,0.41-2.17,0.9l-2.23,2.24c-0.49,0.5-0.9,1.14-0.9,1.43
								c0,0.29,0.57,0.53,1.27,0.53l1.06,0c0.7,0,1.68-0.41,2.17-0.9l3.29-3.3c0.49-0.5,0.33-0.9-0.37-0.9L169.52,170.87z"/>
							<path class="st62" d="M169.52,170.87c-0.7,0-1.68,0.41-2.17,0.9l-2.23,2.24c-0.49,0.5-0.9,1.14-0.9,1.43
								c0,0.29,0.57,0.53,1.27,0.53l1.06,0c0.7,0,1.68-0.41,2.17-0.9l3.29-3.3c0.49-0.5,0.33-0.9-0.37-0.9L169.52,170.87z"/>
						</g>
						<g>
							<path class="st28" d="M178.86,170.85c-0.7,0-1.68,0.41-2.17,0.9l-3.29,3.3c-0.49,0.5-0.33,0.9,0.37,0.9l2.12,0
								c0.7,0,1.68-0.41,2.17-0.9l3.29-3.3c0.49-0.5,0.33-0.9-0.37-0.9L178.86,170.85z"/>
							<path class="st62" d="M178.86,170.85c-0.7,0-1.68,0.41-2.17,0.9l-3.29,3.3c-0.49,0.5-0.33,0.9,0.37,0.9l2.12,0
								c0.7,0,1.68-0.41,2.17-0.9l3.29-3.3c0.49-0.5,0.33-0.9-0.37-0.9L178.86,170.85z"/>
						</g>
						<g>
							<path class="st28" d="M199.45,171.55c0-0.41-0.57-0.74-1.28-0.74l-0.64,0c-0.7,0-1.68,0.41-2.17,0.9l-3.29,3.3
								c-0.49,0.5-0.33,0.9,0.37,0.9l2.12,0c0.7,0,1.68-0.41,2.17-0.9l1.8-1.81C199.05,172.7,199.45,171.96,199.45,171.55z"/>
							<path class="st62" d="M199.45,171.55c0-0.41-0.57-0.74-1.28-0.74l-0.64,0c-0.7,0-1.68,0.41-2.17,0.9l-3.29,3.3
								c-0.49,0.5-0.33,0.9,0.37,0.9l2.12,0c0.7,0,1.68-0.41,2.17-0.9l1.8-1.81C199.05,172.7,199.45,171.96,199.45,171.55z"/>
						</g>
						<g>
							<path class="st28" d="M188.2,170.83c-0.7,0-1.68,0.41-2.17,0.9l-3.29,3.3c-0.49,0.5-0.33,0.9,0.37,0.9l2.12,0
								c0.7,0,1.68-0.41,2.17-0.9l3.29-3.3c0.49-0.5,0.33-0.9-0.37-0.9L188.2,170.83z"/>
							<path class="st62" d="M188.2,170.83c-0.7,0-1.68,0.41-2.17,0.9l-3.29,3.3c-0.49,0.5-0.33,0.9,0.37,0.9l2.12,0
								c0.7,0,1.68-0.41,2.17-0.9l3.29-3.3c0.49-0.5,0.33-0.9-0.37-0.9L188.2,170.83z"/>
						</g>
						<g>
							<path class="st28" d="M199.46,173.57c0-0.7-0.41-0.87-0.9-0.37l-1.8,1.81c-0.49,0.5-0.33,0.9,0.37,0.9l1.06,0
								c0.7,0,1.27-0.58,1.27-1.28L199.46,173.57z"/>
							<path class="st62" d="M199.46,173.57c0-0.7-0.41-0.87-0.9-0.37l-1.8,1.81c-0.49,0.5-0.33,0.9,0.37,0.9l1.06,0
								c0.7,0,1.27-0.58,1.27-1.28L199.46,173.57z"/>
						</g>
						<g>
							<path class="st28" d="M192.87,170.82c-0.7,0-1.68,0.41-2.17,0.9l-3.29,3.3c-0.49,0.5-0.33,0.9,0.37,0.9l2.12,0
								c0.7,0,1.68-0.41,2.17-0.9l3.29-3.3c0.49-0.5,0.33-0.9-0.37-0.9L192.87,170.82z"/>
							<path class="st62" d="M192.87,170.82c-0.7,0-1.68,0.41-2.17,0.9l-3.29,3.3c-0.49,0.5-0.33,0.9,0.37,0.9l2.12,0
								c0.7,0,1.68-0.41,2.17-0.9l3.29-3.3c0.49-0.5,0.33-0.9-0.37-0.9L192.87,170.82z"/>
						</g>
					</g>
				</g>
			</g>
			<path class="st42" d="M183.31,281c0-3.34,2.71-6.05,6.05-6.05c3.34,0,6.05,2.71,6.05,6.05H183.31z"/>
			<path class="st63" d="M172.74,228.8l-1.41-0.07c-0.2-0.01-0.35-0.18-0.34-0.37l1.3-25.37c0.01-0.2,0.18-0.35,0.37-0.34l1.41,0.07
				c0.2,0.01,0.35,0.18,0.34,0.37l-1.3,25.37C173.1,228.66,172.93,228.81,172.74,228.8z"/>
			<path class="st63" d="M171.21,243.85h-5.94c-0.82,0-1.49-0.67-1.49-1.49v-17.76c0-0.82,0.67-1.49,1.49-1.49h5.94
				c0.82,0,1.49,0.67,1.49,1.49v17.76C172.7,243.18,172.03,243.85,171.21,243.85z"/>
			<path class="st64" d="M172.7,186.11c-0.08,0.03-0.44,0.16-0.85,0c-0.44-0.18-0.61-0.57-0.64-0.64"/>
			<path class="st64" d="M173.34,185.47c-0.08,0.03-0.44,0.16-0.85,0c-0.44-0.18-0.61-0.57-0.64-0.64"/>
			<path class="st64" d="M191.38,186.11c0.08,0.03,0.44,0.16,0.85,0c0.44-0.18,0.61-0.57,0.64-0.64"/>
			<path class="st64" d="M190.74,185.47c0.08,0.03,0.44,0.16,0.85,0c0.44-0.18,0.61-0.57,0.64-0.64"/>
			<circle class="st2" cx="164.95" cy="190.46" r="1.17"/>
			<circle class="st2" cx="180.87" cy="206.81" r="0.21"/>
			<circle class="st2" cx="179.39" cy="205.75" r="0.21"/>
			<circle class="st2" cx="182.78" cy="206.81" r="0.21"/>
		</g>
		<rect x="215.13" y="179.28" class="st32" width="432.1" height="99.76"/>
		<text transform="matrix(1 0 0 1 215.1299 212.9155)"><tspan x="0" y="0" class="st65 st34 st66">걸스카우트 </tspan><tspan x="0" y="36.36" class="st36 st37 st67">Girl Scouts Korea</tspan></text>
	</g>
	<rect id="_x3C_Slice_x3E_" x="156" y="152" class="st32" width="479" height="132"/>
</g>
<g id="저장용_x2F_2배사이즈">
</g>
</svg>
